<svg width="100%" height="100%" viewBox="0 0 500 500" version="1.1" xmlns="http://www.w3.org/2000/svg" xml:space="preserve" fill-rule="evenodd" clip-rule="evenodd" stroke-linecap="round" stroke-linejoin="round"><path d="M297.072 366.432c0-8.222 6.823-14.986 15.045-14.986 0 0 0 0 0 0h88.633c.059-106.652-50.848-207.24-136.857-270.333L65.225 351.446h29.098c12.595 0 22.975 10.38 22.975 22.975v13.995c-.117 6.414-2.333 12.595-6.24 17.668-3.032 4.14-4.665 9.097-4.665 14.17 0 13.12 10.846 23.908 23.908 23.908 13.12 0 23.908-10.788 23.908-23.908 0-5.307-1.75-10.496-5.015-14.695-3.79-4.898-5.89-10.962-5.831-17.143V374.42c0-12.595 10.32-22.975 22.916-22.975h11.488c7.172 0 13.061 5.89 13.061 13.062 0 0 0 0 0 0-.175 6.414-2.332 12.595-6.239 17.668-3.032 4.14-4.665 9.097-4.665 14.17 0 13.12 10.788 23.908 23.908 23.908 13.12 0 23.908-10.788 23.908-23.908 0-4.84-1.458-9.563-4.257-13.587-4.14-5.714-6.473-12.537-6.648-19.592 0-6.415 5.307-11.663 11.663-11.663h21.808c11.371 0 20.7 9.33 20.7 20.701a129.232 129.232 0 01-9.329 45.425 24.19 24.19 0 00-1.166 12.712c2.099 11.312 12.07 19.592 23.558 19.592 13.061 0 23.85-10.787 23.85-23.907 0-3.033-.526-6.065-1.692-8.864-6.24-16.152-9.33-33.354-9.155-50.73z" fill="none" stroke="#1f3f57" stroke-width="9.9712836"/><path d="M400.75 351.446c.175 9.213 7.756 16.677 16.969 16.677 9.213 0 16.852-7.464 17.027-16.677-.292-117.381-56.27-227.94-150.677-297.68l-.117-.117c-2.974-2.274-6.647-3.557-10.438-3.557-9.33 0-17.027 7.697-17.027 17.027a16.99 16.99 0 006.59 13.411l.816.583" fill="none" stroke="#1f3f57" stroke-width="9.9712836"/><circle cx="6" cy="6" r="5" fill="none" stroke="#1f3f57" stroke-width="1.71" stroke-linecap="butt" stroke-linejoin="miter" transform="translate(233.116 160.866) scale(5.83116)"/><circle cx="4" cy="4" r="3" fill="none" stroke="#1f3f57" stroke-width="1.71" stroke-linecap="butt" stroke-linejoin="miter" transform="translate(198.129 254.165) scale(5.83116)"/><circle cx="6" cy="6" r="5" fill="none" stroke="#1f3f57" stroke-width="1.71" stroke-linecap="butt" stroke-linejoin="miter" transform="translate(291.428 242.503) scale(5.83116)"/></svg>