<svg width="100%" height="100%" viewBox="0 0 500 500" version="1.1" xmlns="http://www.w3.org/2000/svg" xml:space="preserve" fill-rule="evenodd" clip-rule="evenodd" stroke-linecap="round" stroke-linejoin="round" stroke-miterlimit="2"><path d="M372.051 146.162c0-7.712-6.226-13.882-13.938-13.882-7.541 0-13.882 6.113-13.882 13.882 0 7.54 6.34 13.882 13.882 13.882 7.712 0 13.938-6.341 13.938-13.882zm-19.994 0c0-3.256 2.685-6.113 6.056-6.113 3.313 0 6.112 2.8 6.112 6.113 0 3.428-2.8 6.112-6.112 6.112-3.37 0-6.056-2.742-6.056-6.112zM416.153 190.263c0-7.712-6.227-13.881-13.939-13.881-7.54 0-13.882 6.112-13.882 13.881 0 7.77 6.341 13.882 13.882 13.882 7.712 0 13.939-6.17 13.939-13.882zm-19.994 0c0-3.37 2.685-6.112 6.055-6.112 3.313 0 6.113 2.685 6.113 6.112 0 3.428-2.8 6.113-6.113 6.113-3.37 0-6.055-2.742-6.055-6.113zM328.635 145.42c0-7.77-6.112-13.882-13.881-13.882-7.541 0-13.882 6.112-13.882 13.881 0 7.541 6.341 13.882 13.882 13.882 7.769 0 13.881-6.341 13.881-13.882zm-19.994 0c0-3.314 2.685-6.113 6.113-6.113 3.313 0 6.112 2.799 6.112 6.112 0 3.428-2.799 6.113-6.112 6.113-3.428 0-6.113-2.685-6.113-6.113zM372.737 189.52c0-7.768-6.113-13.88-13.882-13.88-7.54 0-13.882 6.112-13.882 13.88 0 7.77 6.341 13.882 13.882 13.882 7.77 0 13.882-6.112 13.882-13.881zm-19.994 0c0-3.427 2.685-6.112 6.112-6.112 3.313 0 6.113 2.685 6.113 6.113 0 3.427-2.8 6.112-6.113 6.112-3.427 0-6.112-2.685-6.112-6.112z" fill="#1f3f57"/><path d="M286.648 70.812c-13.197-3.142-71.922-14.738-136.932 8.512-5.77 2.057-9.655 7.598-9.655 13.768v79.177c0 7.426 5.656 13.71 13.082 14.51 15.881 1.714 43.302 6.17 64.896 17.252" fill="none" stroke="#1f3f57" stroke-width="9.9971025"/><path d="M389.246 115.028s-31.762-31.02-69.75-50.842c-12.797-6.684-28.621-1.543-35.248 11.31L213.412 213a12.232 12.232 0 002.228 14.281l61.353 61.354a12.232 12.232 0 0014.282 2.228l137.56-70.837c12.796-6.626 17.995-22.45 11.31-35.247-19.88-37.989-50.899-69.75-50.899-69.75zM140.061 97.319s-46.215 18.795-73.521 50.957c-10.854 12.853 1.485 32.333 17.823 28.106 16.11-4.17 35.818-7.141 55.698-4.913" fill="none" stroke="#1f3f57" stroke-width="9.9971025"/><path d="M433.462 217.627c3.142 13.196 14.739 71.922-8.512 136.932-2.056 5.827-7.598 9.654-13.767 9.654h-79.12c-7.484 0-13.768-5.655-14.567-13.082-1.714-15.881-6.17-43.302-17.252-64.895M406.956 364.213s-18.738 46.272-50.957 73.522c-12.854 10.854-32.334-1.486-28.106-17.767 4.17-16.11 7.14-35.875 4.913-55.755" fill="none" stroke="#1f3f57" stroke-width="9.9971025"/><path d="M327.95 102.06c0-7.712-6.227-13.881-13.939-13.881-7.54 0-13.882 6.112-13.882 13.881 0 7.541 6.341 13.882 13.882 13.882 7.712 0 13.939-6.34 13.939-13.882zm-19.994 0c0-3.313 2.685-6.112 6.055-6.112 3.313 0 6.113 2.8 6.113 6.112 0 3.428-2.8 6.113-6.113 6.113-3.37 0-6.055-2.742-6.055-6.113z" fill="#1f3f57"/></svg>