<svg width="100%" height="100%" viewBox="0 0 500 500" version="1.1" xmlns="http://www.w3.org/2000/svg" xml:space="preserve" fill-rule="evenodd" clip-rule="evenodd" stroke-linecap="round" stroke-linejoin="round" stroke-miterlimit="2"><g fill="none" stroke="#1f3f57" stroke-width="1.78"><path d="M163.516 401.641H336.54c45.699 0 84.436-34.414 88.927-79.888.337-3.424.393-5.445.393-5.445h21.838a12.555 12.555 0 0012.576-12.576 12.555 12.555 0 00-12.576-12.575H52.302c-6.906 0-12.576 5.614-12.576 12.575 0 6.962 5.67 12.576 12.576 12.576h21.894s0 2.02.337 5.445c4.547 45.474 43.284 79.888 88.983 79.888z" stroke-width="9.9929912"/><path d="M349.172 400.743v12.463c0 9.768-7.916 17.684-17.684 17.684h-162.92c-9.824 0-17.74-7.916-17.74-17.684v-12.463M177.438 185.051s7.972-26.105-3.873-47.326c0 0-18.751 9.825-30.597 31.832 0 0-9.88-28.744-19.48-43.004-5.502 7.074-15.27 9.151-23.243 5.221l-8.084-3.986a276.292 276.292 0 01-1.01 9.6c-1.067 8.59-7.804 15.327-16.393 16.45 5.39 11.845 23.186 39.242 23.186 39.242-22.457.056-39.86 9.263-39.86 9.263 8.59 15.382 24.814 23.186 33.123 26.33M181.649 234.567c5.839 9.263 18.133 11.958 27.34 6.063 9.207-5.838 12.014-18.02 6.12-27.228l45.361-28.912c10.947 17.123 13.867 37.053 9.825 55.467-2.19 9.768-6.344 19.087-12.295 27.284M429.509 244.616l-21.277-38.119c-9.488 5.446-21.614 2.133-27.004-7.354-5.446-9.488-2.246-21.558 7.242-27.004l-26.723-46.653c-17.684 10.106-29.53 26.386-34.47 44.576-4.323 15.888-3.368 33.235 3.762 49.179M75.263 291.157c0-29.867 24.253-54.12 54.12-54.12 29.866 0 54.062 24.253 54.062 54.12M129.382 258.315v6.287M106.14 267.915l4.435 4.435M152.624 267.915l-4.49 4.435M285.902 291.157c0-29.867 24.196-54.12 54.12-54.12 29.866 0 54.062 24.253 54.062 54.12M340.021 258.315v6.287M316.779 267.915l4.435 4.435M363.207 267.915l-4.435 4.435M122.42 184.546l14.71 29.867M297.86 152.658c-19.2 11.902-42.443 9.151-51.93-6.175-9.488-15.27-1.572-37.333 17.628-49.235 19.256-11.902 42.498-9.151 51.986 6.175 9.488 15.27 1.572 37.334-17.684 49.235z" stroke-width="9.9929912"/><path d="M317.733 128.462c-9.544 1.965-19.761-2.077-25.207-10.835-5.39-8.758-4.491-19.705 1.516-27.397M245.93 146.483l-38.85 25.488M204.835 153.837s-23.354-50.582 12.52-84.66c0 0 23.185 13.587 33.29 39.58" stroke-width="9.9929912"/></g></svg>