<?xml version="1.0" encoding="utf-8"?>
<!-- Generator: Adobe Illustrator 27.0.0, SVG Export Plug-In . SVG Version: 6.00 Build 0)  -->
<svg version="1.1" id="Ebene_1" xmlns="http://www.w3.org/2000/svg" xmlns:xlink="http://www.w3.org/1999/xlink" x="0px" y="0px"
	 viewBox="0 0 500 500" style="enable-background:new 0 0 500 500;" xml:space="preserve">
<style type="text/css">
	.st0{fill:none;stroke:#1F3F57;stroke-width:10.8844;stroke-linecap:round;stroke-linejoin:round;stroke-miterlimit:2.3811;}
</style>
<g>
	<path class="st0" d="M207.4,126.3l-6.7-30.8c-1.4-6.3,2.6-12.4,8.9-13.8l10-2.2"/>
	<path class="st0" d="M238.4,114.3l-6.3-42.7c-0.9-6.3,3.4-12.2,9.8-13.2l14.3-2.1c6.3-0.9,12.2,3.4,13.2,9.8l0,0"/>
	<path class="st0" d="M272.6,154.3L271.1,93c-0.2-6.4,4.9-11.7,11.3-11.9l14.4-0.4c6.4-0.2,11.7,4.9,11.9,11.3l2.4,97"/>
	<path class="st0" d="M353.2,90.1l14.3,1.8c6.4,0.8,10.9,6.6,10.1,13l-6.1,48.5"/>
	<path class="st0" d="M299.6,68.5v-4.8c0-6.4,5.2-11.6,11.6-11.6h14.6c6.4,0,11.6,5.2,11.6,11.6v106.7"/>
	<path class="st0" d="M429.6,126.3l6.7-30.8c1.4-6.3-2.6-12.4-8.9-13.8l-10-2.2"/>
	<path class="st0" d="M398.3,116l6.6-44.5c0.9-6.3-3.4-12.2-9.8-13.2l-14.3-2.1c-6.3-0.9-12.2,3.4-13.2,9.8l0,0"/>
	<path class="st0" d="M440.8,126.3h-30.1c-6.7,0-12.3,4.5-14.2,10.9c-8.8,30.2-39.2,52.4-75.3,52.4c-36.1,0-66.4-22.3-75.3-52.4
		c-1.9-6.4-7.5-10.9-14.2-10.9h-30.1c-9,0-15.6,8.4-13.5,17.2l17.3,70.6c8,3.2,14.5,9.2,18.5,16.8c5.7-3.8,12.6-6,20-6
		c17.9,0,32.8,12.9,35.8,30c1.5-0.2,3.1-0.3,4.7-0.3c5.9,0,11.4,1.4,16.3,3.9c14.8,7.4,22,24.6,18.2,40.7l-1.1,4.8h3.4h82.1
		c6.8,0,12.8-4.7,14.4-11.3l36.6-149.1C456.4,134.8,449.8,126.3,440.8,126.3z"/>
	<path class="st0" d="M412.7,300.6l-23.1-26c-3.6-4-8.7-6.3-14.1-6.3h-54.2h-8.5c6.4,8.5,8.9,19.9,6.3,30.8l-0.4,1.5"/>
</g>
<g>
	<path class="st0" d="M324.1,332.4H59.5c-7.8,0-14.2-6.4-14.2-14.2l0,0c0-7.8,6.4-14.2,14.2-14.2h264.6c7.8,0,14.2,6.4,14.2,14.2
		l0,0C338.2,326,331.9,332.4,324.1,332.4z"/>
	<path class="st0" d="M53.7,331.1c0,0,2.8,78.2,72.5,103.1h65.5h65.5c69.7-24.9,72.5-103.1,72.5-103.1"/>
	<path class="st0" d="M126.2,434.2c0,0-0.1,0.2-0.2,0.6c-3.2,9.4,3.9,19.1,13.8,19.1h52h52c9.9,0,17-9.7,13.8-19.1
		c-0.1-0.4-0.2-0.6-0.2-0.6"/>
	<path class="st0" d="M66.2,304l-0.1-0.2c-3.5-7.8-4.3-16.6-1.5-24.7c4.9-14.3,18.5-24.6,34.4-24.6c1.6,0,3.2,0.1,4.7,0.3
		c3-17,17.9-30,35.8-30c7.4,0,14.3,2.2,20,6c6.1-11.6,18.2-19.5,32.2-19.5c14,0,26.1,7.9,32.2,19.5c5.7-3.8,12.6-6,20-6
		c17.9,0,32.8,12.9,35.8,30c1.5-0.2,3.1-0.3,4.7-0.3c5.9,0,11.4,1.4,16.3,3.9c14.8,7.4,22,24.6,18.2,40.7l-1.2,4.9"/>
	<path class="st0" d="M159.6,230.9c0,0-5.8,11.9-1.6,25.5"/>
	<path class="st0" d="M103.7,254.9c0,0,12.1,3,16.4,13.3"/>
	<path class="st0" d="M279.8,254.9c0,0,1.9,10.6-6.5,18.7"/>
	<path class="st0" d="M324.1,332.4H59.5c-2.1,0-4-0.4-5.8-1.2h0c0,0,2.8,78.2,72.5,103.1h65.5h65.5c69.7-24.9,72.5-103.1,72.5-103.1
		h0C328.1,331.9,326.1,332.4,324.1,332.4z"/>
</g>
</svg>
