<svg width="100%" height="100%" viewBox="0 0 500 500" version="1.1" xmlns="http://www.w3.org/2000/svg" xml:space="preserve" fill-rule="evenodd" clip-rule="evenodd" stroke-linecap="round" stroke-linejoin="round" stroke-miterlimit="2"><path d="M50.212 422.121c-7.685 0-11.972-9.045-7.005-14.953L79.7 363.2c7.371-8.94 21.174-8.679 28.232.523l7.79 9.306 12.861-23.213c7.424-10.404 23.004-9.986 29.853.836l36.127 57.459c3.817 6.117-.575 14.011-7.737 14.011H50.212zM115.722 373.028l13.018 17.306M448.602 330.627H254.374c-5.75 0-10.456-4.444-10.456-9.985 0-5.49 4.705-9.986 10.456-9.986h194.228c5.751 0 10.404 4.496 10.404 9.986 0 5.541-4.653 9.985-10.404 9.985zM254.426 330.627s1.935 54.949 50.975 72.516h92.174c49.04-17.567 50.975-72.516 50.975-72.516" fill="none" stroke="#1f3f57" stroke-width="9.985881099999999"/><path d="M305.401 403.143s-.052.157-.156.418c-2.3 6.588-.575 18.56 9.672 18.56h73.09c9.934 0 11.973-11.972 9.725-18.56-.105-.261-.157-.418-.157-.418M409.443 291.05a122.135 122.135 0 00-115.91 0M332.85 240.598c-2.405-64.726-26.09-118.21-26.09-118.21-3.554-11.136-18.768-13.646-25.095-3.765-.261.47-.522.89-.784 1.36-2.091 4.025-2.353 8.835-1.255 13.227l11.764 45.224" fill="none" stroke="#1f3f57" stroke-width="9.985881099999999"/><path d="M280.045 134.622s-3.346-14.326-20.181-13.228c-14.221.89-21.75 10.457-21.07 23.423l2.928 25.984M79.96 240.598c2.406-64.726 26.142-118.21 26.142-118.21 3.503-11.136 18.717-13.646 25.043-3.765.262.47.523.89.784 1.36 2.092 4.025 2.405 8.835 1.255 13.227l-11.763 45.224" fill="none" stroke="#1f3f57" stroke-width="9.985881099999999"/><path d="M132.818 134.622s3.294-14.326 20.129-13.228c14.22.89 21.75 10.457 21.07 23.423l-2.928 25.984" fill="none" stroke="#1f3f57" stroke-width="9.985881099999999"/><path d="M174.016 144.817s9.045-17.097 32.415-17.097c23.318 0 32.363 17.097 32.363 17.097M122.1 112.663c13.332-20.39 46.06-34.767 84.331-34.767 38.27 0 71 14.377 84.28 34.767M215.947 422.121h37.486c0-15.58-10.247-23.684-19.292-27.762-8.313-3.712-13.593-12.025-13.593-21.174v-44.283" fill="none" stroke="#1f3f57" stroke-width="9.985881099999999"/><path d="M348.743 252.257v-11.66H64.067v18.142s1.725 36.337 61.013 36.337h33.356c18.717 0 33.827 15.161 33.827 33.826v35.447" fill="none" stroke="#1f3f57" stroke-width="9.985881099999999"/></svg>