<svg width="100%" height="100%" viewBox="0 0 500 500" version="1.1" xmlns="http://www.w3.org/2000/svg" xml:space="preserve" fill-rule="evenodd" clip-rule="evenodd" stroke-linecap="round" stroke-linejoin="round" stroke-miterlimit="2"><path d="M373.578 309.96l61.857-28.767 1.027-36.8c-26.915 7.293-53.27 18.047-75.33 28.38 10.33-22.057 21.065-48.43 28.377-75.336l-36.81 1.014-28.906 62.15c-20.723 44.635-52.243 80.091-93.222 107.38-5.01 3.335-18.575 9.664-18.389 27.017.28 25.365 32.08 36.122 47.918 16.74 8.432-10.334 38.925-67.132 113.478-101.779zM258.762 346.647a116.437 116.437 0 0028.066 29.04" fill="none" stroke="#1f3f57" stroke-width="9.9880434"/><path d="M382.944 218.903l38.8-6.755-6.752 38.792M419.028 305.153s-9.584 28.919-6.908 43.151c0 0-54.98-9.988-92.288 26.563" fill="none" stroke="#1f3f57" stroke-width="9.9880434"/><path d="M266.991 121.411c-5.625 17.504-9.016 27.013-9.497 30.308-2.119 14.489 6.342 28.893 20.724 33.53 8.841 2.852 20.054 2.596 29.121-1.108 15.585-6.375 22.948-24.297 16.587-39.889L313.7 119.634M318.462 131.107c10.83-.412 24.173-2.836 28.548-12.74" fill="none" stroke="#1f3f57" stroke-width="10.0034142"/><path d="M257.44 151.985c5.52 1.702 7.186 6.739 15.023 6.44 9.636-.366 9.342-8.081 18.995-8.448 9.636-.367 9.93 7.349 19.582 6.981 7.837-.298 9.116-5.44 14.475-7.56M263.098 133.213c-10.83.412-24.319-.992-29.433-10.534M288.735 78.39c28.549-1.086 57.176 11.09 58.275 39.976 0 0-25.783-8.903-57.049-7.738-31.264 1.214-56.296 12.049-56.296 12.049-1.099-28.886 26.505-43.2 55.07-44.287z" fill="none" stroke="#1f3f57" stroke-width="10.0034142"/><g><path d="M234.247 306.28c7.955 3.916 16.204-2.715 14.115-11.349-11.553-47.396-29.895-83.79-41.537-103.843-8.14-14.012-25.046-20.182-38.606-13.946-.171.077-.342.154-.542.254-12.185 5.68-22.73 14.158-30.923 24.862l-.336.452c-9.03 11.927-6.608 29.742 5.301 40.723 17.085 15.677 48.691 41.407 92.528 62.847zM199.281 183.737l-22.278 17.912M208.053 193.139l-11.876 9.548M178.625 271.691l22.278-17.911M189.211 279.634l11.905-9.57M75.002 167.241c-.068.032-.132.069-.172.077-.342.154-.65.294-.922.42-.371.177-.733.365-1.088.562-.327.174-.645.36-.925.533-.061.04-.125.077-.186.117-.956.61-1.415 1.026-1.415 1.026l-.028.023c-7.767 6.244-8.998 17.598-2.754 25.364 4.663 5.8 12.177 7.948 18.923 6.066a13.14 13.14 0 001.864 3.13c4.612 5.737 13 6.651 18.726 2.048a13.325 13.325 0 004.814-12.527s7.005-8.875 19.12-7.561c-29.24-26.386-47.728-22.74-55.957-19.278zM146.768 109.541l.112-.15a16.2 16.2 0 01.608-.811c.253-.325.486-.615.754-.92.269-.304.518-.574.748-.81.052-.052.074-.083.126-.135.801-.802 1.334-1.184 1.334-1.184 7.766-6.244 19.12-5.008 25.364 2.758a18.01 18.01 0 011.888 19.761 13.14 13.14 0 012.658 2.493c4.612 5.737 3.703 14.125-2.05 18.751-3.855 3.1-8.933 3.691-13.241 1.99 0 0-10.172 4.934-11.491 17.05-19.49-34.225-11.987-51.476-6.81-58.793z" fill="none" stroke="#1f3f57" stroke-width="10.001365"/><path d="M99.403 183.952c3.712-.027 7.422 1.569 9.93 4.69 1.259 1.564 2.1 3.598 2.506 5.438M135.346 110.6c-6.973-8.673-19.285-10.52-28.444-4.617-6.357-4.54-15.201-4.512-21.579.615-6.405 5.15-8.303 13.76-5.235 20.943-7.733 7.678-8.573 20.099-1.6 28.772" fill="none" stroke="#1f3f57" stroke-width="10.001365"/></g></svg>