<svg width="100%" height="100%" viewBox="0 0 500 500" version="1.1" xmlns="http://www.w3.org/2000/svg" xml:space="preserve" fill-rule="evenodd" clip-rule="evenodd" stroke-linecap="round" stroke-linejoin="round" stroke-miterlimit="2"><path d="M442.408 296.086l-77.506-33.328c-2.7-1.132-6.111-1.132-8.818 0l-77.5 33.328c-5.384 2.325-5.384 7.81 0 10.076l77.5 33.327c2.707 1.133 6.117 1.133 8.818 0l77.506-33.327c5.378-2.266 5.378-7.75 0-10.076z" fill="none" stroke="#1f3f57" stroke-width="10.01616"/><path d="M392.44 301.154l-31.944 13.712-31.944-13.712" fill="none" stroke="#1f3f57" stroke-width="10.01616"/><path d="M274.548 301.154v98.969c0 7.035 4.197 13.414 10.654 16.157l69.338 29.512a15.295 15.295 0 0011.912 0l69.332-29.512c6.463-2.743 10.66-9.122 10.66-16.157v-98.97M360.496 340.384v106.6M291.79 182.689l-27.628 27.604M346.426 81.812l23.973-23.968a16.258 16.258 0 0123.127 0c6.385 6.38 6.385 16.694 0 23.073l-23.98 24.027M241.035 187.16l27.628-27.604M186.406 288.037L81.486 392.97c-6.391 6.379-16.741 6.379-23.126 0-6.386-6.38-6.386-16.694 0-23.133l104.925-104.872" fill="none" stroke="#1f3f57" stroke-width="10.01616"/><path d="M298.33 189.187l-36.201-36.19c-11.471-11.446-11.471-30.048 0-41.554l36.201-36.19c11.477-11.447 30.085-11.447 41.555 0l36.202 36.19c11.477 11.506 11.477 30.108 0 41.555l-36.202 36.19c-11.47 11.506-30.078 11.506-41.555 0zM192.94 294.595l-36.195-36.189c-11.477-11.507-11.477-30.108 0-41.555l36.195-36.19c11.477-11.506 30.084-11.506 41.561 0l36.195 36.19c11.477 11.447 11.477 30.048 0 41.555l-36.195 36.19c-11.477 11.506-30.084 11.506-41.561 0z" fill="none" stroke="#1f3f57" stroke-width="10.01616"/></svg>