<svg width="100%" height="100%" viewBox="0 0 500 500" version="1.1" xmlns="http://www.w3.org/2000/svg" xml:space="preserve" fill-rule="evenodd" clip-rule="evenodd" stroke-linecap="round" stroke-linejoin="round" stroke-miterlimit="2"><path d="M378.63 320.277s-35.414 5.95-60.964 40.141l-34.39-25.698c20.256-27.107 23.025-51.165 22.488-64.644M373.869 295.683c.934-4.19 2.74-8.26 5.474-11.919a31.136 31.136 0 0113.93-10.51" fill="none" stroke="#1f3f57" stroke-width="10.010837200000001"/><path d="M431.006 285.934c1.925-1.336 3.698-2.974 5.178-4.954 7.31-9.782 5.304-23.637-4.478-30.947a22.143 22.143 0 00-7.848-3.74c1.227-17.585-6.199-35.398-21.378-46.74-11.764-8.792-25.965-12.026-39.447-10.156a29.814 29.814 0 00-4.551-4.201c-13.263-9.91-32.016-7.19-41.915 6.056a30.917 30.917 0 00-2.455 3.837c-11.85-.316-23.664 4.928-31.3 15.146-12.489 16.712-9.066 40.388 7.655 52.883 9.914 7.409 20.548 9.213 31.596 5.96 3.53 6.212 8.753 10.8 16.222 16.38 10.64 7.952 23.247 11.343 35.515 10.548-2.442 11.582 1.799 24.056 11.889 31.596 13.857 10.355 33.486 7.52 43.84-6.335 7.954-10.645 8.117-24.693 1.477-35.333zM312.073 218.447c-2.47-7.583-1.884-16.04 2.049-23.37M362.943 189.288c6.624 7.446 9.03 17.687 6.665 27.146" fill="none" stroke="#1f3f57" stroke-width="10.010837200000001"/><g><path d="M113.636 287.849c1.749 17.487 1.98 42.76-10.13 48.27-30.486-25.207 7.82-71.102 10.13-48.27z" fill="none" stroke="#1f3f57" stroke-width="9.9973032"/><path d="M122.05 327.673c13.593 12.736 29.76 23.426 48.798 29.794 63.382 21.182 55.596 60.214 78.89 77.668 0 0 5.74-15.639 5.51-29.53-.165-11.646 8.182-7.324 38.999-14.979-17.949-23.92-56.024-14.418-77.702-79.021-29.134-86.776-143.063-112.181-150.454-108.09-5.048 2.805-7.556 8.48-6.368 13.858 1.386 6.434 10.063 37.217 29.332 68.925M241.654 354.827s2.673 26.132-27.814 27.847M116.11 215.723s.363 40.22-42.034 42.035" fill="none" stroke="#1f3f57" stroke-width="9.9973032"/><path d="M98.821 220.375a7.303 7.303 0 01-9.304 4.52c-3.827-1.32-5.84-5.51-4.52-9.337M159.102 238.918s32.5-24.218 65.131-5.444c0 0-23.624 19.467-15.903 59.093M170.848 357.467s-16.794 15.507-11.878 34.28c0 0 10.888-9.7 31.939.1 0 0-2.838-11.911 4.025-23.756" fill="none" stroke="#1f3f57" stroke-width="9.9973032"/></g><g><path d="M201.294 179.35c-36.528-.746-65.614-26.967-64.966-58.573.648-31.606 30.781-56.625 67.288-55.897 23.276.47 43.536 11.312 54.99 27.273 6.014 8.377 15.36 13.746 25.682 13.96l1.14.017c5.55.117 9.956 4.707 9.847 10.257l-.31 15.253c-.13 5.53-4.715 9.933-10.245 9.836l-1.16-.038c-10.3-.196-19.868 4.772-26.222 12.905-12.1 15.49-32.772 25.481-56.044 25.007z" fill="none" stroke="#1f3f57" stroke-width="10.0136078"/><path d="M295.115 114.355l45.215.919c.696-6.114 5.878-10.82 12.161-10.68 6.65.136 11.918 5.624 11.801 12.293-.075 3.332-1.5 6.31-3.73 8.452a11.996 11.996 0 013.373 8.61c-.135 6.649-5.639 11.933-12.288 11.797-6.264-.122-11.258-5.028-11.705-11.157l-45.238-.935" fill="none" stroke="#1f3f57" stroke-width="10.0136078"/></g></svg>