<?xml version="1.0" encoding="utf-8"?>
<!-- Generator: Adobe Illustrator 27.0.1, SVG Export Plug-In . SVG Version: 6.00 Build 0)  -->
<svg version="1.1" id="Ebene_1" xmlns="http://www.w3.org/2000/svg" xmlns:xlink="http://www.w3.org/1999/xlink" x="0px" y="0px"
	 viewBox="0 0 595.3 254.8" style="enable-background:new 0 0 595.3 254.8;" xml:space="preserve">
<style type="text/css">
	.st0{fill-rule:evenodd;clip-rule:evenodd;fill:#DAE0E6;}
	.st1{fill:#123657;fill-opacity:0.15;}
	.st2{fill:#DAE0E6;}
	.st3{fill:#123657;}
	.st4{fill:#DB747A;}
	.st5{fill-rule:evenodd;clip-rule:evenodd;fill:#FFFFFF;}
	.st6{fill:#DC757B;}
	.st7{fill:#FFFFFF;}
</style>
<path id="Rechteck_25_00000036952735448110661790000016078943675158317740_" class="st0" d="M518.6,94.4c-1,0.1-1.7,0.9-1.6,1.9
	l0.4,5.6c0.1,1,0.9,1.7,1.9,1.6l16.1-1.3c1-0.1,1.7-0.9,1.6-1.9l-0.4-5.6c-0.1-1-0.9-1.7-1.9-1.6L518.6,94.4z"/>
<path id="Pfad_10_00000152262436999522101800000006838535990225458075_" class="st1" d="M533.3,94.3c0.8-4.4,4.7-24.7,6.2-31.9
	c0.3-1.6,0.9-3.4,1.5-5.5c2.5-8.5,6.2-21.2,0.8-32.8c-6.2-13.3-17.9-10.5-20.5-9.7c-2.7-0.4-14.7-1.5-18.9,12.7
	c-3.6,12.2,2,24.3,5.7,32.3c0.9,2,1.7,3.7,2.3,5.2c2.6,7,11.6,26.8,12.9,30.6"/>
<path id="Pfad_11_00000178888458233253516960000011636523358489346209_" class="st2" d="M518.8,99.6h1.8c0,0,2,43.2,3.5,54.1l6,9.5
	l2,1.3l4.4,0h0l4.4,0l1.6-1.3l-1.4-8.8c-2-11-9.3-54.9-9.3-54.9h1.8"/>
<path class="st3" d="M535.6,93.5c-0.1-0.5-0.5-0.9-1.1-0.9l-15.5,1.3c-0.5,0.1-0.9,0.6-0.9,1.1l0.5,6.2c0.1,0.5,0.5,0.9,1.1,0.9
	l15.5-1.3c0.5-0.1,0.9-0.6,0.9-1.1L535.6,93.5C535.6,93.5,535.6,93.5,535.6,93.5z M533.7,94.7c0.1,1.4,0.2,2.8,0.3,4.2l-13.6,1.1
	c-0.1-1.4-0.2-2.8-0.3-4.2L533.7,94.7z"/>
<path id="Pfad_17_00000167366709198686649060000010705411454107290758_" class="st1" d="M549.7,64.3c3.4-9,12.2-20,19.1-17.3
	c7,2.7,11.5,18.2,8.1,27.2c-2.9,7.6-11.5,14.3-17.7,13.9c-3.8,15.8-6.7,22.3-15.5,42.4c-9.4,21.4-9,25.4-13.8,23.6
	c-4.8-1.8-4.1-5.5,5.5-26.8c7.9-17.7,16.2-35.6,17.9-43.5C548.5,79.9,546.8,72,549.7,64.3L549.7,64.3z"/>
<path id="Pfad_19_00000178926881416513628140000012041023497458587037_" class="st3" d="M566.5,62.1c0.9,4.8-0.1,9.6-4.5,12.2
	c-1.1,0.6,0.1,2.2,1.2,1.6c5-2.9,6.4-8.5,5.3-14C568.2,60.7,566.2,60.9,566.5,62.1L566.5,62.1z"/>
<path id="Pfad_20_00000134244945990439921500000008717201583415337106_" class="st4" d="M509,116.4l-1.2,6.8
	c-4.8,22.5-18.8,42.2-19.7,66.1c-0.6,14.3,0.3,31.6,12.2,41c5,3.6,10.6,6.4,16.5,8.3c4.5,1.5,9.2,2.4,13.9,2.8
	c7.9,0.9,16.1-0.2,21.6-6.8c6.7-8.1,8.1-21.1,9-31.3c0.3-3.2,2.5-18.5,2.2-19.3c2.4,7.4,6.6,24,17.6,17.4c8.5-5.1,1.7-18.5-1.3-25.2
	c-8.1-17.8-19.5-36.9-18.4-57.6C561.3,118.6,509,116.4,509,116.4"/>
<path id="Pfad_21_00000106129948838699656320000010074416393414580914_" class="st3" d="M577.8,162.1c-6.9-13.7-13.8-27.8-13.3-43.5
	c0-0.6-0.5-1-1-1.1c0,0-44-2.1-48.4-2c-1.3,0-2.7,0-3.5,0.1c-3,0.2-6.3,0.8-7,1c-1.7,0.6-4.2,1.4-5,3.3c-0.5,0.9-0.7,2-0.6,3
	c0.2,2.2,1.9,4.1,4.1,4.5c0.2,0.1,0.4,0.2,0.6,0.2c0.2,0.1,0.4,0.1,0.6,0c2.5,0.1,5-0.5,7.2-1.8c-5.2,18.9-16.2,35.8-17.4,55.8
	c-0.7,8.4,0.2,16.8,2.6,24.8c2.9,8.8,9.7,14.2,17.7,18c14.3,6.6,35.3,10.4,44.6-5.6c3.5-7.5,4.3-15.2,5.6-24.7
	c0.3-3.3,0.7-7.6,1.2-11c1.5,4.3,4,9.4,7.7,11.2c1.5,0.7,3.2,1,4.9,0.8c4.4-0.4,7.8-3.9,8.3-8.3
	C587.9,178.8,581.2,168.9,577.8,162.1L577.8,162.1z M516.2,117.9l5,0.2l15.5,0.7l25,1.1c0.3,0,0.2,0.2,0.3,0.5
	c0.4,12.7,4.1,22.4,4.9,24.5c3.5,9.2,8.4,17.9,12.7,26.9c3,6.3,9.2,19-1.8,21.1c-6.9,1.3-9.9-11.5-11.4-16.2
	c-0.2-0.5-0.7-0.8-1.3-0.8c-0.7,0.1-1.2,0.7-1.1,1.3c-0.7,4.9-1.1,10-1.7,14.6c-0.9,7.4-1.7,14.2-3.6,21.1c-7.1,22-35,15-49.9,5.7
	c-15-9.4-14.1-33.2-10.8-48.3c3.6-16.4,12.8-31,16.6-47.4c0.2-1-1.2-1.9-2-1.2c-2.2,2.5-5.5,3.7-8.8,3.4c0-0.2,0-0.5,0-0.7
	c0.3,0,0.5,0.1,0.8,0.1c3,0,5.9-1.3,7.8-3.7c0.2-0.3,0.3-0.6,0.3-0.9c-0.1-0.7-0.7-1.2-1.3-1.1c-2,0.3-4,0.4-6,0.8
	c0.9-0.9,1.5-1,3.4-1.4c1.9-0.2,3.8-0.3,5.7-0.4C515.4,117.8,516.2,117.9,516.2,117.9L516.2,117.9z"/>
<path id="Pfad_22_00000041267107818547785120000009734449340557134503_" class="st5" d="M508.7,160.4c-1.3-9.2,4-17.1,10.8-18.7
	c7.2-1.7,15.2,2.2,16.7,11.9c0,0,0.1,0.2,0.2,0c4.1-8.9,12.8-10.4,19.3-6.8c6.1,3.4,9,12.5,5.3,21c-5.4,12.4-28.1,19.3-30.9,31.3
	c0,0.1-0.3,0.1-0.3,0C530.4,186.8,510.5,173.8,508.7,160.4z"/>
<path id="Pfad_23_00000116933890592691899960000017267441260244980666_" class="st3" d="M509.9,160.3c-0.6-7.1,1.8-14,8.6-17
	c7.9-3.5,14.9,3.2,16.5,10.4c0.1,0.6,0.5,1,1,1.1c0.1,0,0.1,0,0.2,0c0.6,0.1,1.1-0.2,1.3-0.7c5.2-9.9,18.1-10.6,22.9,0.1
	c4.1,9.2-2.5,17.5-9.1,22.8c-7.7,6.3-19.4,11.4-22.4,21.8l1.4-1c2.8,0.3-5.8-14.1-6.6-15.1C518.6,175.9,511.5,169.1,509.9,160.3
	c-0.3-1.6-2.8-1.3-2.5,0.3c1.2,6.6,5.1,11.8,9.1,17c4.9,6.3,12,13.2,12.1,21.7c0,0.6,0.5,1,1,1.1l0.3,0c0.7,0.1,1.3-0.4,1.4-1
	c2-7.1,9.5-11.6,15.2-15.6c5.2-3.7,10.5-7.5,14.2-12.9c6.9-10.2,2.1-25.1-10.4-27c-5.9-0.9-11,2.7-14.1,7.3
	c-0.4,0.6,0.9,0.9,0.6,0.1c-0.6-1.7-1.3-3.4-2.2-5c-1.5-2.3-3.7-4-6.2-5.1c-12.8-6.2-22.1,8.1-21.1,19.3v0c0.1,0.7,0.7,1.2,1.4,1.1
	C509.5,161.6,510,161,509.9,160.3L509.9,160.3z"/>
<path class="st3" d="M528.3,16.3c-6.8-1.8-14.6-0.6-19.2,5c-3.8,4.5-3.6,11.7-3.1,17.2c1.5,16.4,8.3,32.5,15,47.4
	c1.1,2.5,2.3,5,3.5,7.5l2.1-0.2c-4.5-9.1-8.5-18.5-11.9-28.1c-3.2-8.4-5.4-17.1-6.6-25.9c-0.9-7.6-0.6-16.5,7.2-20.3
	c8.7-4.3,21.6,0.1,22.4,10.7c0.6,7.8-0.9,16-1.8,23.7c-1.1,9.4-2.4,18.7-3.9,28c-0.5,3.9-1.1,7.8-1.9,11.7l2-0.2
	c0.7-3.7,1.4-7.4,1.8-11.2c1.5-9.3,2.8-18.6,3.9-28C539.2,41.4,544.6,20.5,528.3,16.3L528.3,16.3z"/>
<path class="st3" d="M528.4,93.1c-2.7-24.9-3.4-50-1.9-75.1c0.1-1.3-1.9-1.6-1.9-0.3c-1.5,25.2-0.8,50.5,1.9,75.5L528.4,93.1
	L528.4,93.1z"/>
<path class="st3" d="M527.7,93.2c-6.4-23.6-12.6-47.7-14.8-72.1c0-0.5-0.5-1-1-0.9c-0.5,0-1,0.5-0.9,1c0,0,0,0,0,0.1
	c2.2,24.4,8.4,48.5,14.8,72.1L527.7,93.2L527.7,93.2z M534.5,116.8c-0.4-5.3-0.9-10.6-1.3-15.8l-2,0.2c0.4,5.2,0.9,10.4,1.3,15.6
	C532.5,116.8,534.5,116.8,534.5,116.8z M525.4,116.5c-0.3-4.9-0.7-9.9-1-14.8l-2,0.2c0.3,4.9,0.7,9.7,1,14.6L525.4,116.5z
	 M572.3,54.1c-8.6-8.2-20,1.6-23.5,9.8v0c-1.8,4.7-1.9,9.9-0.3,14.7c0.6,1.9,1.8,3.6,3.2,5c1.4,1.2-1.3,6.5-1.9,8
	c-3.2,8.6-7,17-10.8,25.4l2.2,0.1c5.1-10.8,10.4-21.8,13-33.2c0.1-0.4-0.1-0.7-0.3-0.9c-5.3-4.7-5.5-11.9-3.4-18.3
	c4.1-9.8,17.8-17.4,23.7-4.4c4.6,10.2-3.6,25-15.1,24.8c-0.3,0-0.7,0.3-0.8,0.6c-5.4,9.7-8.7,20.8-11.8,31.7l2.3,0.1
	c2-6.4,4-12.7,6.3-19c0.9-2.5,1.9-5,2.9-7.5c0.9-2.2,1.2-3.7,3.7-4c4.6-0.4,8.4-3.7,11.2-7.2C578.7,72.6,579.3,60.7,572.3,54.1
	L572.3,54.1z"/>
<path id="Pfad_38_00000092457779460084141470000009551190013112367275_" class="st3" d="M454.3,166.1c-0.9-0.8-1.5-1.4-1.6-2.4
	c-0.1-0.9,0.3-1.6,0.9-2.3c0.2-0.2,0.7-0.5,0.7-0.5c0-0.5-0.1-1-0.3-1.6c-0.3,0.1-0.5,0.3-0.8,0.4c-0.6,0.4-0.5,0.3-1,0.8
	c-0.8,0.9-1.2,2-1.1,3.3c0.1,0.7,0.2,1.4,0.6,2.1c0.4,0.8,1.1,1.5,1.9,1.9c0,0,2.8,2,10.4,1.4c8.8-0.8,16-6.2,16-6.2
	C495.6,152.5,504,126,504,126l-2.6-1.3c0,0-7.7,22.9-16,31c0,0-5.1,7.5-14.4,10.3C458.3,169.8,454.3,166.1,454.3,166.1L454.3,166.1z
	"/>
<path class="st6" d="M91.7,195.2c-0.5-0.6-0.8-1.3-1.1-2c-0.8-2.4-1.3-4.9-1.9-7.4c-1-4.2-1.7-8.5-2.4-12.8
	c-0.4-2.9-0.8-5.8-1.4-8.7c-0.1-0.6-0.2-1.3-0.5-1.9c-0.6,1.7-0.9,3.4-1.4,5.1c-0.9,3.5-1.8,7.1-2.9,10.6c-0.7,2.4-1.6,4.8-2.7,7.1
	c-1,2.2-2.1,4.3-3.9,6c-0.9,0.8-1.8,1.4-3.1,1.5c-1.6,0.1-2.9-0.6-3.8-1.9c-0.9-1.2-1.3-2.6-1.6-4c-0.4-2.2-0.6-4.3-0.4-6.5
	c0.2-3.6,0.8-7.1,1.6-10.6c0.6-2.8,1.4-5.5,2.3-8.2c0.7-2.1,1.6-4.2,2.7-6.2c1-1.7,2.1-3.2,3.8-4.3c2.2-1.4,4.5-1.6,6.9-0.2
	c1.1,0.6,1.9,1.6,2.5,2.7c0.4,0.6,0.8,1.2,1.4,1.6c1,0.6,1.5,1.7,1.9,2.7c0.9,2.5,1.4,5,2,7.6c0.8,3.7,1.5,7.4,2.3,11
	c0.7,3.3,1.3,6.6,2.1,9.9c0.3,1.3,0.7,2.5,1.1,3.8c0.2,0.5,0.5,0.9,1,1.2c1.1,0.7,1.7,2,1.4,3.2c-0.3,1.3-1.2,2.2-2.5,2.4
	C93.7,197,92.6,196.3,91.7,195.2L91.7,195.2z M70.4,187c0.6-0.6,0.9-1.3,1.3-1.9c1.6-3.1,2.7-6.3,3.7-9.6c1.2-4.2,2.4-8.5,3.6-12.7
	c0.4-1.3,0.9-2.7,0.3-4.1c-0.1-0.2,0-0.4,0-0.5c0-0.3,0-0.6-0.1-1c-0.4-1.7-1.1-1.9-2.3-0.7c-1,0.9-1.7,2.1-2.3,3.3
	c-1.2,2.4-2.1,4.9-2.8,7.5c-0.7,2.3-1.2,4.7-1.6,7.1c-0.2,1.5-0.3,3.1-0.5,4.6c-0.3,1.9,0,3.8,0.1,5.6
	C69.9,185.4,70.1,186.2,70.4,187L70.4,187z M121.1,201.2c-0.2-0.7-0.3-1.4-0.3-2.1c-0.2-2-0.6-7.2-0.8-9.1c-0.2-2.8-0.3-5.6-0.5-8.4
	c-0.3-3.6-0.2-7.1-0.3-10.7c0-2,0-4-0.1-6c0-0.5,0-0.9-0.5-1.4c-0.6,2.4-1.1,4.8-1.7,7.2c-0.5,2.1-1,4.3-1.5,6.4
	c-0.3,1.5-0.6,3-0.9,4.5c-0.6,2.8-1.2,5.5-2.4,8.2c-0.3,0.8-0.8,1.5-1.2,2.2c-0.3,0.5-0.8,1-1.4,1.4c-1.6,1.1-3.5,1.1-5.1,0
	c-0.5-0.3-0.9-0.7-1.2-1.1c-0.3-0.6-0.7-1.2-1-1.9c-0.6-1.6-1-3.3-1.3-5c-0.9-4.5-0.8-9.1-0.8-13.6c0-2.2,0.3-4.5,0.5-6.7
	c0.4-3.5,1.1-7,2.3-10.5c0.4-1.2,0.9-2.4,1.8-3.5c0.4-0.6,1-1,1.8-1.3c1.7-0.6,4.1,0.6,4,1.8c0,0.5,0,0.9-0.4,1.4
	c-1.4,1.8-2.2,3.9-2.8,5.9c-0.7,2.2-1.2,4.4-1.7,6.7c-0.9,4.5-0.9,9.1-0.6,13.6c0.2,2.9,0.7,5.7,1.5,8.6c0.1,0.2,0.2,0.4,0.4,0.9
	c1-2.6,1.6-5.2,2.2-7.7c0.8-3.7,1.6-7.4,2.6-11c0.7-2.6,1.4-5.3,2.1-7.9c0.4-1.5,0.9-3,1.6-4.4c0.3-0.7,0.8-1.4,1.5-2
	c1.3-0.9,3.3-0.9,4.2,0.5c0.5,0.7,0.7,1.5,0.8,2.3c0.4,1.8,0.4,3.7,0.4,5.5c0.1,3.3,0.2,6.5,0.5,9.8c0.1,1.7,0.2,3.4,0.4,5.1
	c0.2,1.5,0.2,2.9,0.4,4.4c0.2,1.6,0.2,3.2,0.4,4.8c0.2,1.2,0.8,7.9,1,8.9c0.2,0.9,0.4,1.8,0.6,2.7c0.1,0.3,0.2,0.6,0.2,1
	c0,1-0.9,1.8-2.2,1.9C122.6,202.9,121.4,202.3,121.1,201.2L121.1,201.2z M167.4,199.9c-1.4,0-2.5-0.8-2.7-2c-0.1-0.4,0-0.9,0-1.4
	c0.3-4.7,0.5-9.3,0.8-14c0.4-6.9,0.5-13.8,0.2-20.6c-0.2-3.3-0.5-6.6-1.4-9.8c-0.1-0.4-0.2-0.9-0.6-1.3c-0.7,0.5-0.7,1.2-0.9,1.8
	c-1,2.9-1.7,5.8-2.4,8.7c-1.7,7.4-2.5,14.8-3.5,22.3c-0.2,1.1-0.4,2.3-0.6,3.4c-0.2,0.8-0.5,1.5-1.1,2.1c-0.7,0.7-1.5,1.1-2.5,0.9
	c-1.1-0.2-1.8-0.8-2-1.7c-0.2-0.7-0.2-1.4-0.3-2.1c-0.1-4.5-0.2-9.1-0.3-13.6c-0.1-3.7-0.2-7.3-1.1-10.9c-0.3-1.3-0.6-2.6-1.7-3.8
	c-0.9,0.8-1.4,1.7-1.8,2.5c-1.6,3.1-2.6,6.3-3.5,9.6c-1.4,5.2-2.1,10.5-2.8,15.8c-0.2,1.2-0.4,2.5-0.6,3.7c-0.1,0.8-0.4,1.5-1.1,2.1
	c-1.4,1.3-3.3,1.1-4-0.5c-0.2-0.4-0.2-0.8-0.3-1.2c-0.5-3.2-0.5-6.4-0.8-9.5c-0.4-5.4-0.9-15.6-1.3-19.8c-0.2-2.5-0.6-4.9-0.8-7.4
	c-0.1-0.8-0.2-1.6-0.1-2.5c0.2-1.6,1.8-2.8,3.4-2.6c1.7,0.2,2.9,1.5,2.5,3.1c-0.5,1.6-0.4,3.1-0.3,4.6c0.1,4.4,0.3,9.3,0.3,11.8
	c0,0.2,0,0.4,0.4,0.6c0.2-0.7,0.4-1.5,0.7-2.2c0.7-2.5,1.7-5,2.9-7.4c0.6-1.2,1.3-2.3,2.2-3.3c0.6-0.7,1.4-1.4,2.3-1.8
	c1.9-1,4-0.9,5.6,0.2c1.3,0.9,2,2.1,2.5,3.4c0.5,1.2,0.8,2.4,1.3,4c0.8-2.7,1.4-5.1,2.2-7.5c0.6-2,1.4-4,2.5-5.9
	c0.6-0.9,1.3-1.8,2.2-2.5c2.2-1.5,4.7-1.2,6.1,0.7c1,1.3,1.4,2.8,1.7,4.3c0.8,3.3,1,6.6,1.1,10c0.2,6.5,0,13,0,19.5
	c0,5.6-0.1,11.2,0.2,16.7c0,0.4,0,0.8-0.1,1.2C169.8,199,168.7,199.8,167.4,199.9z M182.3,192.4l-0.8-0.6c-1.4-1.1-2.2-2.5-2.8-3.8
	c-0.9-2-1.4-4-1.6-6.1c-0.5-5.4,0.3-10.7,1.8-16c1-3.4,2.2-6.7,4.1-9.8c1-1.7,2.2-3.3,4-4.7c1-0.8,2.2-1.4,3.6-1.8
	c2.2-0.6,4.4-0.2,6.1,1.1c1.2,0.9,1.8,2,2,3.2c0.7,3,0.3,5.9-0.7,8.7c-4.4,13.7-14,19-15.1,19.5c-0.5,0.1-0.6,0.4-0.5,0.8
	c0.4,1.9,1.3,4.2,2.6,5.9c1.7,1.5,3.6,1.7,6.1,0.5c1.1-0.5,2.1-1.2,2.9-2c1.7-1.4,2.2-2.3,3.6-3.8c4.4-5.1,6.7-9.6,7.3-10.6
	c0.3-0.9,0.8-1.7,1.5-2.4c1-1.1,3.4-1.7,4.7-0.5c1.5,1.2-1.2,4.8-1.7,5.5c-1.8,2.6-3,5.3-8.8,11.4c-1.4,1.5-3,2.8-4.6,4
	c-1.6,1.1-3.4,2.1-5.6,2.7C187.3,194.2,184.7,193.8,182.3,192.4L182.3,192.4z M182.9,175.6c0.6-0.5,1.3-1,1.9-1.6
	c3.4-3.4,5.9-7.1,7.4-11.2c0.7-1.9,1.1-3.8,1-5.8c0-0.8-0.2-1.5-0.5-2.2c-0.2-0.4-0.5-0.5-1-0.3c-0.8,0.4-1.4,0.9-2,1.4
	c-1,1-1.8,2.1-2.5,3.3c-2.7,4.8-4.1,9.8-4.8,15c-0.1,0.5-0.3,1.1,0,1.7C182.6,175.7,182.8,175.6,182.9,175.6L182.9,175.6z"/>
<path class="st6" d="M225.9,200.5c-1.4-0.2-2.4-1.1-2.4-2.3c0-1,0.2-2.1,0.4-3.1c0.7-4.1,2-11,2.4-15.1c0.6-6,1.2-13.6,0.4-19.5
	c-0.1-0.8-0.3-1.6-0.6-2.4c-0.1-0.4-0.2-0.8-0.6-1.1c-0.6-0.2-0.9,0.3-1.1,0.5c-1.3,1.3-2.3,2.7-3.2,4.2c-3,5.2-5.4,12.4-7,18
	c-0.8,3.1-1.4,6.2-1.9,9.4c-0.1,0.5-0.2,1-0.3,1.5c-0.1,0.3-0.2,0.6-0.3,0.8c-0.6,1-1.8,1.5-2.9,1.3c-1.1-0.2-1.8-0.9-1.9-2.1
	c-0.1-1.5-0.1-2.9-0.2-4.4c-0.6-12.1-0.4-17.1-2.2-29.1c-0.2-1.6-0.7-3.2-1-4.8c-0.1-0.5-0.3-1-0.2-1.6c0.3-1.6,2.2-2.7,4.1-2.4
	c1.9,0.3,3.4,1.9,2.8,3.4c-1.3,3.3-0.6,19.9,0,20.5c1.2-3.4,2.9-8.3,4.6-11.4c1.1-2,2.4-4,4-5.8c1-1.1,2-2,3.4-2.7
	c2.9-1.4,5.8-0.8,7.6,1.6c0.9,1.2,1.3,2.6,1.6,4c0.5,2.7,0.5,5.3,0.4,8c-0.2,4.1-1,9.8-1.2,14c-0.3,4.8-1,12.4-1.3,17.2
	c0,0.6,0,1.3-0.3,1.9C228.5,200.1,227.3,200.7,225.9,200.5L225.9,200.5z M293.6,192.4l-0.8-0.6c-1.4-1.1-2.2-2.5-2.8-3.8
	c-0.9-2-1.4-4-1.6-6.1c-0.5-5.4,0.3-10.7,1.8-16c1-3.4,2.2-6.7,4.1-9.8c1-1.7,2.2-3.3,4-4.7c1-0.8,2.2-1.4,3.6-1.8
	c2.2-0.6,4.4-0.2,6.1,1.1c1.2,0.9,1.8,2,2,3.2c0.7,3,0.3,5.9-0.7,8.7c-4.4,13.7-14,19-15.1,19.5c-0.5,0.1-0.6,0.4-0.5,0.8
	c0.4,1.9,1.3,4.2,2.6,5.9c1.7,1.5,3.6,1.7,6.1,0.5c1.1-0.5,2.1-1.2,2.9-2c1.7-1.4,2.2-2.3,3.6-3.8c4.4-5.1,6.7-9.6,7.3-10.6
	c0.3-0.9,0.8-1.7,1.5-2.4c1-1.1,3.4-1.7,4.7-0.5c1.5,1.2-1.2,4.8-1.7,5.5c-1.8,2.6-3,5.3-8.8,11.4c-1.4,1.5-3,2.8-4.6,4
	c-1.6,1.1-3.4,2.1-5.6,2.7C298.6,194.2,296,193.8,293.6,192.4L293.6,192.4z M294.1,175.6c0.6-0.5,1.3-1,1.9-1.6
	c3.4-3.4,5.9-7.1,7.4-11.2c0.7-1.9,1.1-3.8,1-5.8c0-0.8-0.2-1.5-0.5-2.2c-0.2-0.4-0.5-0.5-1-0.3c-0.8,0.4-1.4,0.9-2,1.4
	c-1,1-1.8,2.1-2.5,3.3c-2.7,4.8-4.1,9.8-4.8,15c-0.1,0.5-0.3,1.1,0,1.7C293.9,175.7,294.1,175.6,294.1,175.6z"/>
<path class="st6" d="M338.7,195.2c-0.2-0.7-0.3-1.4-0.3-2.1c-0.2-2-0.5-3.2-0.6-5.1c-0.2-2.8-0.1-3.6-0.3-6.4
	c-0.3-3.6-0.2-7.1-0.3-10.7c0-2,0-4-0.1-6c0-0.5,0-0.9-0.5-1.4c-0.6,2.4-1.2,4.8-1.7,7.2c-0.5,2.1-1,4.3-1.5,6.4
	c-0.3,1.5-0.6,3-0.9,4.5c-0.6,2.8-1.2,5.5-2.4,8.2c-0.3,0.8-0.8,1.5-1.2,2.2c-0.3,0.5-0.8,1-1.4,1.4c-1.6,1.1-3.5,1.1-5.1,0
	c-0.5-0.3-0.9-0.7-1.2-1.1c-0.3-0.6-0.7-1.2-1-1.9c-0.6-1.6-1-3.3-1.3-5c-0.9-4.5-0.8-9.1-0.8-13.6c0-2.2,0.3-4.5,0.5-6.7
	c0.4-3.5,1.1-7,2.3-10.5c0.4-1.2,0.9-2.4,1.8-3.5c0.4-0.6,1-1,1.8-1.3c1.7-0.6,4.1,0.6,4,1.8c0,0.5,0,0.9-0.4,1.4
	c-1.4,1.8-2.2,3.9-2.8,5.9c-0.7,2.2-1.2,4.4-1.7,6.7c-0.9,4.5-0.9,9.1-0.6,13.6c0.2,2.9,0.7,5.7,1.5,8.6c0.1,0.2,0.2,0.4,0.4,0.9
	c1-2.6,1.6-5.2,2.2-7.7c0.8-3.7,1.6-7.4,2.6-11c0.7-2.6,1.4-5.3,2.1-7.9c0.4-1.5,0.9-3,1.6-4.4c0.3-0.7,0.8-1.4,1.5-2
	c1.3-0.9,3.3-0.9,4.2,0.5c0.5,0.7,0.7,1.5,0.8,2.3c0.4,1.8,0.4,3.7,0.4,5.5c0.1,3.3,0.2,6.5,0.5,9.8c0.1,1.7,0.2,3.4,0.4,5.1
	c0.2,1.5,0.2,2.9,0.4,4.4c0.2,1.6,0,1.2,0.2,2.8c0.2,1.2,0.6,3.9,0.8,5c0.2,0.9,0.4,1.8,0.6,2.7c0.1,0.3,0.2,0.6,0.2,1
	c0,1-0.9,1.8-2.2,1.9C340.1,196.9,339,196.3,338.7,195.2L338.7,195.2z M370.1,200.5c-1.4-0.2-2.4-1.1-2.4-2.3c0-1,0.2-2.1,0.4-3.1
	c0.7-4.1,2-11,2.4-15.1c0.6-6,1.2-13.6,0.4-19.5c-0.1-0.8-0.3-1.6-0.6-2.4c-0.1-0.4-0.2-0.8-0.6-1.1c-0.6-0.2-0.9,0.3-1.1,0.5
	c-1.3,1.3-2.3,2.7-3.2,4.2c-3,5.2-5.4,12.4-7,18c-0.8,3.1-1.4,6.2-1.9,9.4c-0.1,0.5-0.2,1-0.3,1.5c-0.1,0.3-0.2,0.6-0.3,0.8
	c-0.6,1-1.8,1.5-2.9,1.3c-1.1-0.2-1.8-0.9-1.9-2.1c-0.1-1.5-0.1-2.9-0.2-4.4c-0.6-12.1-0.4-17.1-2.2-29.1c-0.2-1.6-0.7-3.2-1-4.8
	c-0.1-0.5-0.3-1-0.2-1.6c0.3-1.6,2.2-2.7,4.1-2.4c1.9,0.3,3.4,1.9,2.8,3.4c-1.3,3.3-0.6,19.9,0,20.5c1.2-3.4,2.9-8.3,4.6-11.4
	c1.1-2,2.4-4,4-5.8c1-1.1,2-2,3.4-2.7c2.9-1.4,5.8-0.8,7.6,1.6c0.9,1.2,1.3,2.6,1.6,4c0.5,2.7,0.5,5.3,0.4,8c-0.2,4.1-1,9.8-1.2,14
	c-0.3,4.8-1,12.4-1.3,17.2c0,0.6,0,1.3-0.3,1.9C372.7,200.1,371.5,200.7,370.1,200.5L370.1,200.5z M404.9,209.6
	c-0.3-0.6-0.6-1.9-0.6-2.4c-0.1-0.9-0.9-10.3-1.4-21.9c-0.1-2.7-0.2-5.5-0.3-8.2c0-0.2,0-0.3,0-0.5l0,0l0-2c-1.2,4.3-2.6,8.1-4.9,12
	c-0.8,1.3-1.7,2.6-2.8,3.8c-0.7,0.8-1.6,1.5-2.6,2c-2.7,1.4-5.8,0.9-7.7-1.3c-1.1-1.3-1.8-2.7-2.2-4.2c-0.9-3.3-0.9-6.5-0.5-9.8
	c0.6-4.2,1.9-8.4,4-12.3c1.1-2,2.5-3.9,4.3-5.7c1.1-1.1,2.4-2,3.9-2.8c1.5-0.7,3.9-1,5.7-0.9c1.3,0.1,1.3,0,1.4-0.8
	c0.4-3.6,1.5-27.7,1.5-28.9c0.1-1.2,0.1-2.4,0.3-3.6c0.2-1.3,0.8-2.3,1.9-3.1c1.5-1,3.4-0.9,4.7,0.4c1.2,1.3,0.9,4.8-0.5,6.2
	c-0.7,0.7-0.7,2-0.8,2.9c-0.1,1.1-2.5,18,0.3,75c0,0.2,0,0.5,0,0.7c0,0.4,0.1,0.6,0.4,0.9c1.5,1.2,1.1,2.2,0.3,3.8
	c-0.2,0.4-0.5,0.8-0.8,1.1C407.5,211.3,405.7,211,404.9,209.6L404.9,209.6z M392.3,187.6c0.6-1,1.2-1.9,1.7-3
	c3.4-7.2,5.4-14.6,6.5-22.2c0.1-0.9-0.6-1-1.2-1.5c-0.6-0.4-1.9-0.6-2.5-0.2c-0.8,0.4-1.5,0.9-2.2,1.5c-1.7,1.4-2.9,3-3.9,4.8
	c-2.6,4.7-3.7,9.7-3.5,15c0,0.6,0,1.3,0.1,1.9c0.2,1.5,0.5,3.1,1.3,4.5c0.9,1.7,1.6,1.7,2.9,0.3
	C391.8,188.3,392.1,187.9,392.3,187.6L392.3,187.6z M417.5,189c-0.6-2.6-1.1-5.3-1.2-7.9c-0.3-6.8-0.4-12.4-0.6-19.1
	c-0.1-3.4-0.2-4.8-0.3-8.2c0-2.3,1.1-3.8,2.9-3.9c1.7-0.1,3,1.3,3.2,3.4c0,0.7,0,1.6-0.4,2.1c-0.6,0.9-0.7,1.8-0.7,2.7
	c-0.1,4.9,0,6.6,0,11.5c0,5.6,0.1,11.3,1.2,16.8c0.2,0.8,0.6,2.9,0.8,2.9c0.8-1.1,4.8-5.2,8.2-12.8c0.6-1.4,1-2.9,1.5-4.4
	c0.6-2.1,1.9-3.1,3.6-2.7c1.7,0.4,2.4,1.9,1.5,3.9c-1.6,3.8-4.9,8.6-7.8,13.8c-0.7,1.2-1.5,2.3-2.4,3.4c-1.4,1.8-2.9,3.6-5.7,3.1
	C418.7,193.1,418,191.1,417.5,189L417.5,189z M417.3,128.5c0.2-1.4,1.6-2.5,3-2.4c1.7,0.1,3.2,1.6,3,3.1c-0.1,1.4-1.5,2.4-3,2.4
	C418.6,131.4,417.1,130,417.3,128.5L417.3,128.5z"/>
<path class="st6" d="M453.3,200.5c-1.4-0.2-2.4-1.1-2.4-2.3c0-1,0.2-2.1,0.4-3.1c0.7-4.1,2-11,2.4-15.1c0.6-6,1.2-13.6,0.4-19.5
	c-0.1-0.8-0.3-1.6-0.6-2.4c-0.1-0.4-0.2-0.8-0.6-1.1c-0.6-0.2-0.9,0.3-1.1,0.5c-1.3,1.3-2.3,2.7-3.2,4.2c-3,5.2-5.4,12.4-7,18
	c-0.8,3.1-1.4,6.2-1.9,9.4c-0.1,0.5-0.2,1-0.3,1.5c-0.1,0.3-0.2,0.6-0.3,0.8c-0.6,1-1.8,1.5-2.9,1.3c-1.1-0.2-1.8-0.9-1.9-2.1
	c-0.1-1.5-0.1-2.9-0.2-4.4c-0.6-12.1-0.4-17.1-2.2-29.1c-0.2-1.6-0.7-3.2-1-4.8c-0.1-0.5-0.3-1-0.2-1.6c0.3-1.6,2.2-2.7,4.1-2.4
	c1.9,0.3,3.4,1.9,2.8,3.4c-1.3,3.3-0.6,19.9,0,20.5c1.2-3.4,2.9-8.3,4.6-11.4c1.1-2,2.4-4,4-5.8c1-1.1,2-2,3.4-2.7
	c2.9-1.4,5.8-0.8,7.6,1.6c0.9,1.2,1.3,2.6,1.6,4c0.5,2.7,0.5,5.3,0.4,8c-0.2,4.1-1,9.8-1.2,14c-0.3,4.8-1,12.4-1.3,17.2
	c0,0.6,0,1.3-0.3,1.9C455.9,200.1,454.7,200.7,453.3,200.5L453.3,200.5z M59.9,209.2c-0.6-1.9-0.8-3.8-1-5.7l-0.1-0.6
	c-1.2-11.2-3-30.8-2.7-41c0.1-2.3,0-4.3-0.2-6.2l0.1-0.1l-0.1-0.2c-0.1-0.5-0.1-1-0.3-1.5c-0.4-1.3-1.3-2.1-2.7-2.4l0,0l-0.2,0
	c-0.1,0-8.7-0.9-16.4-0.1c-0.5,0.1-4.7,1.1-4.7,3.6c0,1.2,0.5,2.2,1.3,2.9c0.7,0.6,1.6,0.8,2.5,0.8c0.4,0,0.8,0,1.2-0.1
	c3.1-0.7,8.9-1.4,12.3-0.7c0.3,3.5,0.3,8,0.3,8.1c-0.3,12.3-3.1,21.5-7.9,26c-2.2,2.1-4.9,3.1-8,3C22.5,194.4,21,176,21,175.8
	c-0.4-6.4,0-12.5,1.3-20.6c1.2-7.2,3-13.5,5.6-19.2c1.8-4,3.7-6.9,6-9.4c2-2.2,4.1-3.6,6.5-4.5c1.1-0.4,2.2-0.6,3.2-0.5
	c1.2,0.1,2.3,0.5,3.3,1.3c0.6,0.5,0.6,1,0.7,1.8l0,0.4c0.1,1.3,0.9,2.5,2.1,3.1c1.3,0.6,2.9,0.6,4.2-0.3c1.4-0.9,2-2.2,1.8-3.9
	c-0.2-2-1.3-3.9-3.1-5.4c-4.2-3.5-9.9-4.1-15-1.6c-3.3,1.6-6.2,4.1-8.7,7.6c-1.9,2.7-3.9,5.6-5.4,9.2c-3.3,7.9-5.4,14.6-6.5,21.1
	c-2.1,11.9-2.1,20.5,0.1,31.7c0,0.2,1,4.4,3.9,8.3c2.7,3.7,7.7,7.9,15.9,6.7c9.8-1.4,13.9-12,15.2-22c0.1,2.8,0.1,5.8,0.2,8.6
	c0.2,7.3,0.6,11.9,1,16.3c0.2,2.4,0.5,4.2,0.8,5.9c0.3,1.5,1.5,2.6,3,2.6c0.2,0,0.4,0,0.5,0c0.9-0.2,1.7-0.6,2.2-1.4
	C60,210.9,60.1,210,59.9,209.2L59.9,209.2z M244.7,179.2l0.1,1.7l0.2,2.5c0.1,1.2,0.2,2.5,0.3,3.8c0.2,2.1,0.2,2.3,0.5,4.1l0.1,0.4
	c0.3,1.8,0.6,3.9,0.9,5.9c0.5,2.5,0.2,0.9,0.7,3.4l0.2,0.8c0.5,2.2,0.7,3.2,1.1,4.7c0.2,0.6,0.4,1.3,0.6,2.1
	c0.1,0.6,0.7,3.7,2.5,4.2c0.4,0.1,0.8,0.2,1.1,0.2c0.7,0,1.3-0.2,1.7-0.6c1.1-1.1,0.7-3.1,0.7-3.3c-0.3-1.2-0.5-2.1-0.7-2.9
	c-0.4-1.4-0.6-2.5-1.1-4.6c-0.5-2.2-0.1-0.2-0.6-2.9l0-0.2c-0.4-2-0.8-4.1-1.2-6.3c-0.4-2.2-0.5-2.7-0.9-5.6c-0.2-1.7-0.4-3.5-0.6-5
	c-0.1-0.8-0.2-1.7-0.2-2.8l-0.4-5.5h0l0-0.2c0-0.4-0.1-0.9-0.1-1.3l0-1.5c0-1.6-0.1-3.1,0-4.7c0-2.6-0.1-2.5,0-5l0-0.2
	c0-0.4,0.1-1.4,0.2-2.3l0-0.4c0-0.6,0.1-1.1,0.1-1.4c1-12.8,4.6-19.7,7.5-23.3c3.1-3.9,6-4.7,6-4.7c2.7-0.4,4.1,3.6,4.1,3.7
	c1,2.4,1.5,5.1,1.5,8.4c0,0.2,0.3,1.9,1.7,2.6c1,0.4,2.2,0.2,3.6-0.8c2.6-1.8,1.6-6.6,1.6-6.8c-0.3-1.9-0.9-4.4-2.3-6.8
	c-0.9-1.6-2.1-2.8-3.5-3.9c-1.9-1.4-4.1-2-6.4-2c-2.1,0-4,0.5-5.7,1.5c-2.1,1.2-3.8,2.8-5.3,5c-1.6,2.2-2.7,3.8-4.2,7.4
	c-0.7,1.9-4.5,9.4-4.3,28.6l0,1.4c0,1.3,0,2.8,0.1,4.3c0,0.6,0,1.2,0.1,1.8c0,0.3,0,0.7,0,1.1L244.7,179.2L244.7,179.2z"/>
<path class="st6" d="M255.3,171.5c-9.8,2.3-14.8,1.9-16.4,1.8s-4-1.1-3.7-3.4c0.3-2.3,3.4-2.3,3.4-2.3c7.3,0.3,8.8-0.1,8.8-0.1
	c13.9-1.7,16.2-8.9,18.7-10.2c2.5-1.3,3,2.6,3,2.6v9l0.3,0.1c0.4-1.3,0.8-2.6,1.2-3.8c0.9-2.8,1.9-5.5,3.7-7.9
	c1.3-1.8,2.9-3,5.1-3.5c3.2-0.7,6.4,0.4,8.2,3.1c0.6,0.9,1.2,2,1.5,3c0.6,1.6-0.4,3.2-1.9,3.7c-1.4,0.4-3-0.4-3.6-1.8
	c-0.1-0.3-0.1-0.6-0.2-0.9c-0.6-2.1-2.5-2.6-4.1-1.1c-1,0.9-1.6,2.2-2.2,3.5c-1.4,3.2-2.2,6.3-2.8,9.7c-0.9,5.8-1.1,11.6-1.5,17.4
	c-0.1,1.1-0.2,2.2-0.3,3.4c-0.1,0.7-0.3,1.3-0.7,1.8c-1.2,1.5-3.3,1.5-4.3-0.2c-0.7-1.1-0.8-2.4-1-3.7c-0.8-5.5-1.1-11.1-1.5-16.7
	c-0.2-2.3-0.5-6.2-0.5-7.7C264.4,167,261.3,170.1,255.3,171.5z"/>
<path class="st3" d="M461.7,166.4c0.5,1.4,0.9,3,1.3,4.8c0.4,1.9,0.6,3.9,0.5,5.9c0,2-1,3.8-2.7,4.8c-2.1,0.6-4.3,0.4-6.2-0.7
	c-1-0.4-2-1-2.8-1.8c-0.3-0.3-0.5-0.6-0.6-1c0-0.2,0-0.5,0.2-0.6c0.3-0.3,0.7-0.6,1.1-0.8c0.3-0.1,0.6-0.1,1,0c1,0.4,1.9,1,2.6,1.7
	c1.6,1.7,3,3.6,4.1,5.7c2.1,3.7,3.8,7.7,5.1,11.8c1,2.9,1.6,5.9,1.8,8.9c0.1,1.1,0,2.3-0.1,3.4l0.5,0.1c0.4-1.2,0.6-2.4,0.6-3.6
	c0.1-3.2-0.3-6.3-1.1-9.4c-1.1-4.3-2.7-8.5-4.8-12.5c-1.2-2.3-2.7-4.4-4.4-6.3c-1-1.1-2.3-2-3.7-2.5c-0.9-0.3-1.9-0.2-2.8,0.2
	c-0.7,0.3-1.4,0.8-2,1.5c-0.7,0.8-1,1.9-0.7,2.9c0.2,0.9,0.7,1.6,1.4,2.2c1.1,1,2.3,1.7,3.6,2.2c1.3,0.5,2.6,0.9,3.9,1
	c0.7,0.1,1.4,0.1,2.1,0c0.4,0,0.8-0.1,1.2-0.2l0.5-0.2l0.5-0.2c1.3-0.7,2.3-1.7,2.8-3.1c0.5-1.2,0.7-2.4,0.7-3.7
	c0-2.2-0.3-4.3-0.9-6.4c-0.5-1.9-0.9-3.6-1.4-5.1c-0.3-0.8-0.6-1.6-0.9-2.3c-0.4-0.9-0.9-1.7-1.4-2.6c-0.4-0.6-0.9-1-1.5-1.4
	c0.1,0.6,0.2,1.9,0.2,1.9S460.4,162.3,461.7,166.4L461.7,166.4z"/>
<g>
	<path class="st3" d="M451.9,59.3c-4.2,1.5-8.5,2.4-12.9,2.8c-4.2-12.1-14.5-20.4-26.2-19.7L115.5,58.7
		c-12.1,0.7-21.8,10.9-24.1,24.1c-4,0-7.9-0.4-11.8-1.3c-4.1-1.6-17.9,3.2-17.8,11.1c0.8,7.9,15,11,18.9,9c3.8-1.3,7.6-2.2,11.6-2.7
		c3.8,12.9,14.5,21.9,26.7,21.2l297.2-16.3c12.6-0.7,22.6-11.7,24.4-25.8c4.2-0.1,8.3,0.4,12.4,1.3c4.1,1.6,17.9-3.2,17.8-11.1
		C470,60.5,455.8,57.3,451.9,59.3L451.9,59.3z"/>
	<path class="st7" d="M123.4,99.3c-1.4,0.1-2.7-0.1-4.1-0.5c-1.4-0.4-2.6-1.1-3.7-2l2.5-3.4c0.8,0.6,1.6,1.1,2.5,1.4
		c0.9,0.3,1.8,0.5,2.7,0.5c1,0,1.7-0.3,2.1-0.7c0.5-0.4,0.7-0.9,0.6-1.5c0-0.3-0.1-0.6-0.3-0.8c-0.1-0.2-0.4-0.4-0.6-0.6
		c-0.3-0.2-0.6-0.3-1-0.5c-0.4-0.1-0.8-0.3-1.3-0.5l-2.8-1c-0.5-0.2-1.1-0.4-1.6-0.7c-0.5-0.3-1-0.7-1.4-1.1c-0.4-0.4-0.8-1-1-1.5
		c-0.3-0.6-0.4-1.3-0.5-2c0-0.8,0.1-1.7,0.4-2.4c0.3-0.8,0.8-1.5,1.4-2.1c0.6-0.6,1.4-1.1,2.3-1.4c0.9-0.4,1.9-0.6,2.9-0.6
		c1.2-0.1,2.4,0.1,3.6,0.5c1.2,0.4,2.3,1,3.2,1.9l-2.2,3.1c-0.7-0.5-1.4-0.9-2.1-1.1c-0.7-0.3-1.5-0.3-2.3-0.3
		c-0.8,0-1.4,0.2-1.9,0.6c-0.5,0.3-0.7,0.8-0.6,1.4c0,0.3,0.1,0.6,0.3,0.8c0.2,0.2,0.4,0.4,0.7,0.6c0.3,0.2,0.6,0.3,1,0.5
		c0.4,0.1,0.8,0.3,1.3,0.5l2.7,0.9c1.3,0.4,2.3,1.1,3.1,1.9c0.8,0.9,1.2,2,1.3,3.5c0.1,1.7-0.5,3.4-1.8,4.6
		c-0.6,0.6-1.4,1.1-2.4,1.5C125.7,99,124.6,99.2,123.4,99.3z M140,98l-0.9-16.8l-5.7,0.3l-0.2-3.9l16.1-0.9l0.2,3.9l-5.7,0.3
		l0.9,16.8C144.7,97.7,140,98,140,98z M155.5,97.1l-1.1-20.7l12.9-0.7l0.2,3.9l-8.3,0.5l0.2,4.2l7-0.4l0.2,3.9l-7,0.4l0.3,4.8
		l8.6-0.5l0.2,3.9L155.5,97.1L155.5,97.1z M174.9,96.1l-1.1-20.7l13-0.7l0.2,3.9l-8.4,0.5l0.3,4.8l7.2-0.4l0.2,3.9l-7.2,0.4l0.4,8
		L174.9,96.1L174.9,96.1z M193.4,95l-1.1-20.7l13-0.7l0.2,3.9l-8.4,0.5l0.3,4.8l7.2-0.4l0.2,3.9l-7.2,0.4l0.4,8L193.4,95L193.4,95z
		 M212,94l-1.1-20.7l4.7-0.3l1.1,20.7L212,94z M229.5,93.6c-1.4,0.1-2.7-0.1-4.1-0.5c-1.4-0.4-2.6-1.1-3.7-2l2.5-3.4
		c0.8,0.6,1.6,1.1,2.5,1.4c0.9,0.3,1.8,0.5,2.7,0.5c1,0,1.7-0.3,2.1-0.7c0.5-0.4,0.7-0.9,0.6-1.5c0-0.3-0.1-0.6-0.3-0.8
		s-0.4-0.4-0.6-0.6c-0.3-0.2-0.6-0.3-1-0.5c-0.4-0.1-0.8-0.3-1.3-0.5l-2.8-1c-0.5-0.2-1.1-0.4-1.6-0.7c-0.5-0.3-1-0.7-1.4-1.1
		c-0.4-0.4-0.8-1-1-1.5c-0.3-0.6-0.4-1.3-0.5-2c0-0.8,0.1-1.7,0.4-2.4c0.3-0.8,0.8-1.5,1.4-2.1c0.6-0.6,1.4-1.1,2.3-1.4
		c0.9-0.4,1.9-0.6,2.9-0.6c1.2-0.1,2.4,0.1,3.6,0.5c1.2,0.4,2.3,1,3.2,1.9l-2.2,3.1c-0.7-0.5-1.4-0.9-2.1-1.1
		c-0.7-0.3-1.5-0.3-2.3-0.3c-0.8,0-1.4,0.2-1.9,0.6c-0.5,0.3-0.7,0.8-0.6,1.4c0,0.3,0.1,0.6,0.3,0.8c0.2,0.2,0.4,0.4,0.7,0.6
		c0.3,0.2,0.6,0.3,1,0.5c0.4,0.1,0.8,0.3,1.3,0.5l2.7,0.9c1.3,0.4,2.3,1.1,3.1,1.9s1.2,2,1.3,3.5c0,0.8-0.1,1.7-0.4,2.5
		c-0.3,0.8-0.8,1.5-1.4,2.1c-0.6,0.6-1.4,1.1-2.4,1.5C231.8,93.3,230.7,93.5,229.5,93.6L229.5,93.6z M251,92l-1.1-20.7l13-0.7
		l0.2,3.9l-8.4,0.5l0.3,4.8l7.2-0.4l0.2,3.9l-7.2,0.4l0.4,8L251,92L251,92z M277.6,90.9c-1.4,0.1-2.7-0.1-3.9-0.5
		c-1.2-0.4-2.2-1.1-3.1-2c-0.9-0.9-1.6-2-2.1-3.3c-0.5-1.3-0.8-2.8-0.9-4.5s0-3.2,0.4-4.6s1-2.5,1.7-3.4c0.8-0.9,1.7-1.7,2.8-2.2
		c1.1-0.5,2.4-0.9,3.8-0.9c1.4-0.1,2.7,0.1,3.9,0.5c1.2,0.4,2.2,1,3.1,1.9c0.9,0.9,1.6,1.9,2.1,3.2c0.5,1.3,0.8,2.8,0.9,4.5
		c0.1,1.7,0,3.2-0.4,4.6c-0.4,1.4-1,2.5-1.7,3.5c-0.8,1-1.7,1.7-2.8,2.3C280.3,90.5,279,90.8,277.6,90.9L277.6,90.9z M277.4,86.9
		c1.4-0.1,2.5-0.7,3.3-2c0.8-1.3,1.1-2.9,1-5c-0.1-2.1-0.6-3.7-1.5-4.8s-2-1.6-3.5-1.6c-1.4,0.1-2.5,0.7-3.3,1.9
		c-0.8,1.2-1.1,2.8-1,4.9c0.1,2.1,0.6,3.7,1.5,4.9C274.8,86.4,276,86.9,277.4,86.9z M301.2,89.6c-1.4,0.1-2.7-0.1-3.9-0.5
		c-1.2-0.4-2.2-1.1-3.1-2c-0.9-0.9-1.6-2-2.1-3.3s-0.8-2.8-0.9-4.5c-0.1-1.7,0-3.2,0.4-4.6s1-2.5,1.7-3.4c0.8-0.9,1.7-1.7,2.8-2.2
		c1.1-0.5,2.4-0.9,3.8-0.9c1.4-0.1,2.7,0.1,3.9,0.5c1.2,0.4,2.2,1,3.1,1.9c0.9,0.9,1.6,1.9,2.1,3.2s0.8,2.8,0.9,4.5
		c0.1,1.7,0,3.2-0.4,4.6c-0.4,1.4-1,2.5-1.7,3.5c-0.8,1-1.7,1.8-2.8,2.3C303.9,89.2,302.6,89.5,301.2,89.6z M301,85.6
		c1.4-0.1,2.5-0.7,3.3-2c0.8-1.3,1.1-2.9,1-5c-0.1-2.1-0.6-3.7-1.5-4.8s-2-1.6-3.5-1.6s-2.5,0.7-3.3,1.9c-0.8,1.2-1.1,2.8-1,4.9
		c0.1,2.1,0.6,3.7,1.5,4.9C298.4,85.1,299.6,85.6,301,85.6L301,85.6z M316.4,88.4l-1.1-20.7l5.8-0.3c1.6-0.1,3,0,4.3,0.4
		c1.3,0.3,2.4,0.9,3.4,1.7c0.9,0.8,1.7,1.8,2.3,3.1c0.6,1.3,0.9,2.8,1,4.6c0.1,1.8-0.1,3.3-0.5,4.7c-0.4,1.3-1,2.5-1.9,3.4
		c-0.8,0.9-1.9,1.6-3.1,2.1c-1.2,0.5-2.6,0.8-4.1,0.9L316.4,88.4L316.4,88.4z M320.9,84.3l0.9,0c0.9,0,1.7-0.2,2.4-0.5
		c0.7-0.3,1.3-0.7,1.8-1.2c0.5-0.6,0.8-1.3,1.1-2.1c0.2-0.9,0.3-1.9,0.3-3.2c-0.1-1.2-0.3-2.2-0.6-3.1c-0.3-0.8-0.8-1.5-1.3-1.9
		s-1.2-0.8-1.9-1c-0.7-0.2-1.5-0.2-2.4-0.2l-0.9,0L320.9,84.3L320.9,84.3z M338.5,87.1l-1.1-20.7l7.1-0.4c1.1-0.1,2.1,0,3,0.1
		c0.9,0.1,1.8,0.3,2.5,0.7c0.7,0.4,1.3,0.9,1.7,1.5c0.4,0.6,0.7,1.5,0.7,2.4c0,0.5,0,0.9-0.1,1.4c-0.1,0.5-0.3,0.9-0.5,1.3
		c-0.2,0.4-0.5,0.8-0.8,1.1c-0.3,0.3-0.7,0.6-1.1,0.8l0,0.1c0.5,0.1,1,0.3,1.5,0.5s0.9,0.6,1.2,0.9c0.4,0.4,0.6,0.8,0.9,1.4
		c0.2,0.5,0.3,1.1,0.4,1.8c0.1,1.1-0.1,2-0.5,2.8s-0.9,1.4-1.6,2c-0.7,0.5-1.5,0.9-2.5,1.3c-1,0.3-2,0.5-3.1,0.5
		C346.2,86.7,338.5,87.1,338.5,87.1z M342.5,74.5l2.2-0.1c1.1-0.1,2-0.3,2.5-0.8c0.5-0.5,0.7-1.1,0.7-1.8c0-0.8-0.3-1.4-0.9-1.7
		c-0.6-0.3-1.4-0.4-2.5-0.4l-2.2,0.1L342.5,74.5L342.5,74.5z M343,83.3l2.6-0.1c2.6-0.1,3.8-1.1,3.7-3c0-0.9-0.4-1.5-1.1-1.9
		c-0.7-0.3-1.6-0.5-2.9-0.4l-2.6,0.1L343,83.3z M359.6,86l-1.1-20.7l4.7-0.3l0.9,16.8l8.2-0.5l0.2,3.9L359.6,86L359.6,86z
		 M385.3,84.9c-1.4,0.1-2.7-0.1-3.9-0.5c-1.2-0.4-2.2-1.1-3.1-2s-1.6-2-2.1-3.3c-0.5-1.3-0.8-2.8-0.9-4.5c-0.1-1.7,0-3.2,0.4-4.6
		c0.4-1.3,1-2.5,1.7-3.4c0.8-0.9,1.7-1.7,2.8-2.2c1.1-0.5,2.4-0.9,3.8-0.9c1.4-0.1,2.7,0.1,3.9,0.5c1.2,0.4,2.2,1,3.1,1.9
		c0.9,0.9,1.6,1.9,2.1,3.2s0.8,2.8,0.9,4.5c0.1,1.7,0,3.2-0.4,4.6c-0.4,1.4-1,2.5-1.7,3.5c-0.8,1-1.7,1.8-2.8,2.3
		C387.9,84.5,386.7,84.9,385.3,84.9L385.3,84.9z M385,80.9c1.4-0.1,2.5-0.7,3.3-2c0.8-1.3,1.1-2.9,1-5c-0.1-2.1-0.6-3.7-1.5-4.8
		c-0.9-1.1-2-1.6-3.5-1.6s-2.5,0.7-3.3,1.9c-0.8,1.2-1.1,2.8-1,4.9c0.1,2.1,0.6,3.7,1.5,4.9C382.5,80.4,383.6,81,385,80.9z
		 M409.6,83.6c-1.4,0.1-2.7-0.1-4-0.5c-1.2-0.4-2.4-1-3.3-1.8c-1-0.8-1.7-1.9-2.3-3.2c-0.6-1.3-0.9-2.8-1-4.5
		c-0.1-1.7,0.1-3.3,0.5-4.6s1.1-2.5,2-3.5c0.9-1,1.9-1.8,3.1-2.3c1.2-0.6,2.5-0.9,3.9-0.9c1.5-0.1,2.8,0.1,3.9,0.6
		c1.1,0.5,2,1.1,2.7,1.7l-2.3,3.1c-0.6-0.4-1.1-0.8-1.7-1.1c-0.6-0.3-1.4-0.4-2.2-0.3c-0.8,0-1.5,0.2-2.2,0.6
		c-0.6,0.3-1.2,0.8-1.7,1.4s-0.8,1.3-1,2.2c-0.2,0.8-0.3,1.8-0.2,2.8c0.1,2.1,0.7,3.8,1.7,4.9c1,1.1,2.5,1.6,4.5,1.5
		c0.4,0,0.8-0.1,1.2-0.2s0.7-0.3,1-0.5l-0.2-3.6l-3.4,0.2l-0.2-3.8l7.6-0.4l0.5,9.5c-0.7,0.7-1.6,1.4-2.8,1.9S411.1,83.5,409.6,83.6
		L409.6,83.6z"/>
</g>
</svg>
