<svg width="100%" height="100%" viewBox="0 0 500 500" version="1.1" xmlns="http://www.w3.org/2000/svg" xml:space="preserve" fill-rule="evenodd" clip-rule="evenodd" stroke-linecap="round" stroke-linejoin="round" stroke-miterlimit="2"><path d="M153.928 373.766c-7.589 0-14.218-5.136-16.115-12.525l-11.87-45.959-8.368-35.897c-1.683-7.232 2.374-14.568 9.401-16.98l15.124-4.087M374.441 257.323l6.027 2.463c7.163 2.882 11.083 10.638 9.16 18.08l-9.616 37.416-11.865 45.959c-1.897 7.39-8.526 12.525-16.114 12.525" fill="none" stroke="#1f3f57" stroke-width="10.009278599999998"/><path d="M357.022 268.59c-34.184 12.524-20.779-28.98-47.311-35.321-12.08-2.882-33.518 6.708-33.518 35.32v54.292c0 13.573-10.995 24.578-24.546 24.578-13.563 0-24.552-11.005-24.552-24.578v-41.452c0-7.494-6.105-13.625-13.636-13.625-7.53 0-13.63 6.13-13.63 13.625v14.044c0 11.739-9.501 21.224-21.208 21.224h-1.819c-10.706 0-19.39-8.7-19.39-19.39 0-15.25-2.033-28.665-14.06-38.098-9.417-7.336-17.843-4.769-23.325-25.835-3.438-13.206 2.688-27.722 11.513-38.098 6.87-8.123 16.172-13.888 25.888-18.237 43.585-19.442 95.057-12.473 139.554-29.714 10.402-4.035 33.403-10.847 39.754-45.592 20.223 9.171 57.074 39.094 60.653 84.739 4.025 51.409-20.097 72.79-40.367 82.118z" fill="none" stroke="#1f3f57" stroke-width="10.009278599999998"/><path d="M149.898 180.812c-14.522 2.463-26.774-11.686-26.69-26.412.079-14.726 10.423-27.774 22.953-35.53s27.135-11.267 41.306-15.303c8.924-2.567 17.775-5.345 26.537-8.384 8.553-2.987 17.184-6.289 24.211-12 7.017-5.713 9.428-13.94 11.823-23.373 2.997 10.219 10.124 18.289 20.317 21.486 22.455 7.127 39.607 6.865 66.381 20.437M370.427 352.437c3.993.314 7.986.629 11.974.996 16.393 1.677 29.635 11.896 29.635 22.429 0 10.533-13.242 20.752-29.635 22.43-87.898 7.493-176.891 7.493-264.795 0-16.392-1.678-29.635-11.897-29.635-22.43s13.243-20.752 29.635-22.43c5.932-.523 11.875-.995 17.818-1.414" fill="none" stroke="#1f3f57" stroke-width="10.009278599999998"/><path d="M367.88 401.802c0 21.224-19.678 38.413-43.952 38.413H176.08c-24.268 0-43.952-17.189-43.952-38.413" fill="none" stroke="#1f3f57" stroke-width="10.009278599999998"/></svg>