<svg width="100%" height="100%" viewBox="0 0 500 500" version="1.1" xmlns="http://www.w3.org/2000/svg" xml:space="preserve" fill-rule="evenodd" clip-rule="evenodd" stroke-linecap="round" stroke-linejoin="round" stroke-miterlimit="2"><path d="M317.217 139.11h93.891c11.177 0 19.924 9.631 18.87 20.735l-23.294 263.364c-.912 9.63-9.007 16.995-18.689 16.995H291.21c-9.681 0-17.776-7.365-18.688-16.995l-23.295-263.364c-1.053-11.104 7.7-20.734 18.87-20.734h23.635" fill="none" stroke="#1f3f57" stroke-width="10.0269792"/><path d="M205.578 59.801h43.388c15.431 0 28.863 10.537 32.534 25.55l28.166 115.055M80.037 288.213c4.702 13.086 17.227 23.622 33.106 25.662 15.873 2.096 30.375-4.929 37.876-16.372 6.135 12.35 19.725 21.187 35.689 21.13 15.97.057 29.554-8.78 35.69-21.13 4.322 6.571 10.972 11.727 18.863 14.502M112.616 243.97c-.748-9.518.13-24.134.85-33.65.453-6.006 3.285-10.594 6.701-10.594H233.75" fill="none" stroke="#1f3f57" stroke-width="10.0269792"/><path d="M253.815 433.632c-4.498 2.21-9.392 3.626-14.446 4.079-17.516 1.643-35.088 2.493-52.661 2.493s-35.146-.85-52.662-2.493a41.258 41.258 0 01-23.504-10.14c-24.857-21.98-40.606-54.554-40.606-90.923 0-37.332 16.621-70.699 42.68-92.679 25.113 3.4 49.602 5.099 74.092 5.099 17.403 0 34.805-.85 52.435-2.55" fill="none" stroke="#1f3f57" stroke-width="10.0269792"/></svg>