<svg width="100%" height="100%" viewBox="0 0 500 500" version="1.1" xmlns="http://www.w3.org/2000/svg" xml:space="preserve" fill-rule="evenodd" clip-rule="evenodd" stroke-linecap="round" stroke-linejoin="round" stroke-miterlimit="2"><path d="M419.51 253.123H79.4c-10.088 0-18.25-8.218-18.25-18.25 0-10.088 8.162-18.25 18.25-18.25h340.11c10.087 0 18.249 8.162 18.249 18.25 0 10.032-8.162 18.25-18.25 18.25zM79.797 253.123s3.4 113.974 89.093 144.635H330.02c85.693-30.661 89.093-144.635 89.093-144.635M168.89 397.758s-.113.227-.226.737c-4.024 11.505 4.76 23.464 16.946 23.464H313.3c12.185 0 20.97-11.959 16.945-23.464-.113-.51-.226-.737-.226-.737M203.923 186.773l3.118-3.117c7.537-7.538 7.537-19.78 0-27.318l-3.118-3.117-3.117-3.117c-7.538-7.538-7.538-19.723 0-27.26l3.117-3.118M241.16 186.773l3.116-3.117c7.538-7.538 7.538-19.78 0-27.318l-3.117-3.117-3.06-3.117c-7.538-7.538-7.538-19.723 0-27.26l3.06-3.118M278.452 186.773l3.06-3.117c7.595-7.538 7.595-19.78 0-27.318l-3.06-3.117-3.118-3.117c-7.537-7.538-7.537-19.723 0-27.26l3.118-3.118" fill="none" stroke="#1f3f57" stroke-width="9.9748704"/><path d="M316.364 216.606l89.338-118.55c5.667-8.229 16.087-10.73 24.23-5.332 8.142 5.332 10.295 16.324 4.766 24.29l-76.765 99.592" fill="none" stroke="#1f3f57" stroke-width="10.0053544"/></svg>