<svg width="100%" height="100%" viewBox="0 0 500 500" version="1.1" xmlns="http://www.w3.org/2000/svg" xml:space="preserve" fill-rule="evenodd" clip-rule="evenodd" stroke-linejoin="round" stroke-miterlimit="2"><path d="M440.978 250c0-105.478-85.51-190.98-190.968-190.98-105.487 0-190.988 85.502-190.988 190.98 0 105.476 85.5 190.978 190.988 190.978 105.458 0 190.968-85.502 190.968-190.979z" fill="none" stroke="#1f3f57" stroke-width="10.026366000000001"/><path d="M307.05 257.291h37.62l-37.62 127.323h-39.22l-17.59-78.266h-.49l-17.58 78.266h-39.21l-37.62-127.323h37.62l-37.62-127.322h39.95l18.2 82.276h.5l18.97-82.276h34.08l18.97 82.276h.5l18.19-82.276h39.97l-37.62 127.322zm-20.54 82.266l18.19-82.266h-36.87l-17.59-78.255h-.49l-17.58 78.255h-36.88l18.2 82.266h.5l18.97-82.266h34.08l18.97 82.266h.5z" fill="none" stroke="#1f3f57" stroke-width="10"/></svg>