<svg width="100%" height="100%" viewBox="0 0 500 500" version="1.1" xmlns="http://www.w3.org/2000/svg" xml:space="preserve" fill-rule="evenodd" clip-rule="evenodd" stroke-linecap="round" stroke-linejoin="round" stroke-miterlimit="2"><path d="M379.21 177.548s-1.313-19.384 10.348-32.205c0 0 11.408 9.843 16.102 27.006 0 0 11.51-18.324 20.444-26.653 2.726 5.805 9.137 8.834 15.345 7.37l6.21-1.464c-.354 2.625-.657 4.896-.808 6.815a13.5 13.5 0 008.682 14.083c-5.654 7.32-22.463 23.473-22.463 23.473 15.598 3.684 26.198 12.922 26.198 12.922-8.43 9.238-20.948 12.064-27.208 12.922" fill="none" stroke="#1f3f57" stroke-width="9.9947232"/><path d="M416.866 186.079l-11.912 14.588c-7.572 9.339-10.55 26.501 3.432 36.143M436.25 269.318H133.33c-8.986 0-16.255-7.32-16.255-16.254 0-8.986 7.27-16.254 16.254-16.254H436.25c8.985 0 16.254 7.268 16.254 16.254 0 8.934-7.269 16.254-16.254 16.254zM133.683 269.318s3.028 101.512 79.352 128.82h143.51c76.323-27.308 79.352-128.82 79.352-128.82M213.035 398.138s-.101.202-.202.657c-3.584 10.247 4.24 20.898 15.093 20.898h113.728c10.852 0 18.677-10.651 15.093-20.898-.101-.455-.202-.657-.202-.657M75.43 391.071c-17.313-26.5-34.678-80.462-34.678-142.702M175.075 418.986H86.637c-6.209 0-11.206-4.997-11.206-11.156v-16.759h76.474" fill="none" stroke="#1f3f57" stroke-width="9.9947232"/><path d="M201.829 205.715h-70.014c-16.153 0-31.246 2.827-40.13 16.355L74.27 251.145l-28.319-43.26a28.988 28.988 0 01-5.199-16.556v-.707c0-5.401 4.392-9.793 9.793-9.793h167.74c8.985 0 16.304 7.32 16.304 16.355 0 0 0 24.381-4.896 39.626M270.277 140.042l2.777-2.776c6.713-6.713 6.713-17.617 0-24.33l-2.777-2.777-2.776-2.776c-6.714-6.714-6.714-17.566 0-24.28l2.776-2.776M303.442 140.042l2.776-2.776c6.713-6.713 6.713-17.617 0-24.33l-2.776-2.777-2.726-2.776c-6.714-6.714-6.714-17.566 0-24.28l2.726-2.776M336.656 140.042l2.726-2.776c6.764-6.713 6.764-17.617 0-24.33l-2.726-2.777-2.776-2.776c-6.714-6.714-6.714-17.566 0-24.28l2.776-2.776M263.362 219.041c-3.685-3.735-3.685-9.742 0-13.478l16.102-16.052a9.506 9.506 0 0113.478 0l16.052 16.052a9.506 9.506 0 010 13.478M313.285 188.956l9.995-10.6c4.845-4.897 12.77-4.897 17.667 0l21.1 21.15c4.896 4.846 4.896 12.771 0 17.667" fill="none" stroke="#1f3f57" stroke-width="9.9947232"/></svg>